<?xml version="1.0" encoding="UTF-8" standalone="no"?>
<svg
   xmlns:dc="http://purl.org/dc/elements/1.1/"
   xmlns:cc="http://creativecommons.org/ns#"
   xmlns:rdf="http://www.w3.org/1999/02/22-rdf-syntax-ns#"
   xmlns:svg="http://www.w3.org/2000/svg"
   xmlns="http://www.w3.org/2000/svg"
   xmlns:sodipodi="http://sodipodi.sourceforge.net/DTD/sodipodi-0.dtd"
   xmlns:inkscape="http://www.inkscape.org/namespaces/inkscape"
   inkscape:version="1.0beta1 (fe3e306, 2019-09-17)"
   height="561.16998"
   width="729.39307"
   sodipodi:docname="ice+ice+berg+iceberg+melting+water+level+icon-1320183463656808038_0.svg"
   xml:space="preserve"
   viewBox="0 0 729.39306 561.16997"
   version="1.1"
   id="Layer_1"
   enable-background="new 0 0 100 100">
  <metadata
     id="metadata848">
    <rdf:RDF>
      <cc:Work
         rdf:about="">
        <dc:format>image/svg+xml</dc:format>
        <dc:type
           rdf:resource="http://purl.org/dc/dcmitype/StillImage" />
      </cc:Work>
    </rdf:RDF>
  </metadata>
  <defs
     id="defs846">
    <inkscape:path-effect
       message="Utilise la règle de remplissage « fill-rule: evenodd » de la boîte de dialogue &lt;b&gt;Fond et contour&lt;/b&gt; en l'absence de résultat de mise à plat après une conversion en chemin."
       is_inverse="true"
       hide_clip="false"
       flatten="false"
       inverse="true"
       uri="#clipPath913"
       is_visible="true"
       id="path-effect921"
       effect="powerclip" />
    <inkscape:path-effect
       message="Utilise la règle de remplissage « fill-rule: evenodd » de la boîte de dialogue &lt;b&gt;Fond et contour&lt;/b&gt; en l'absence de résultat de mise à plat après une conversion en chemin."
       is_inverse="true"
       hide_clip="false"
       flatten="false"
       inverse="true"
       uri="#clipPath869"
       is_visible="true"
       id="path-effect911"
       effect="powerclip" />
    <inkscape:path-effect
       effect="powerclip"
       id="path-effect885"
       is_visible="true"
       uri="#clipPath869"
       inverse="true"
       flatten="false"
       hide_clip="false"
       is_inverse="true"
       message="Utilise la règle de remplissage « fill-rule: evenodd » de la boîte de dialogue &lt;b&gt;Fond et contour&lt;/b&gt; en l'absence de résultat de mise à plat après une conversion en chemin." />
    <inkscape:path-effect
       message="Utilise la règle de remplissage « fill-rule: evenodd » de la boîte de dialogue &lt;b&gt;Fond et contour&lt;/b&gt; en l'absence de résultat de mise à plat après une conversion en chemin."
       is_inverse="true"
       hide_clip="false"
       flatten="false"
       inverse="true"
       uri="#clipPath913"
       is_visible="true"
       id="path-effect875"
       effect="powerclip" />
    <clipPath
       id="clipPath869"
       clipPathUnits="userSpaceOnUse">
      <g
         clip-path="none"
         id="g873">
        <path
           d="m 80.3,1000039.2 -3.5,-4.2 -2.3,-3.1 c -1.2,-0.3 -2.2,-0.9 -3,-1.7 -1.1,1.1 -2.6,1.8 -4.3,1.8 -1.7,0 -3.2,-0.7 -4.3,-1.8 -1.1,1.1 -2.6,1.8 -4.3,1.8 -1.7,0 -3.2,-0.7 -4.3,-1.8 -1.1,1.1 -2.6,1.8 -4.3,1.8 -1.7,0 -3.2,-0.7 -4.3,-1.8 -1.1,1.1 -2.6,1.8 -4.3,1.8 -1.7,0 -3.2,-0.7 -4.3,-1.8 -1.1,1.1 -2.6,1.8 -4.3,1.8 -1.7,0 -3.2,-0.7 -4.3,-1.8 -1.1,1.1 -2.6,1.8 -4.3,1.8 -0.4,0 -0.7,0 -1.1,-0.1 l -6.4,9.3 0.148213,9.3 67.395913,-0.1 -0.203643,-6.7 z"
           id="path871"
           inkscape:connector-curvature="0"
           sodipodi:nodetypes="ccccscscscscscscccccc" />
      </g>
      <path
         inkscape:connector-curvature="0"
         d="M 80.3,40.2 76.8,36 74.5,32.9 C 73.3,32.6 72.3,32 71.5,31.2 70.4,32.3 68.9,33 67.2,33 65.5,33 64,32.3 62.9,31.2 61.8,32.3 60.3,33 58.6,33 56.9,33 55.4,32.3 54.3,31.2 53.2,32.3 51.7,33 50,33 48.3,33 46.8,32.3 45.7,31.2 44.6,32.3 43.1,33 41.4,33 39.7,33 38.2,32.3 37.1,31.2 36,32.3 34.5,33 32.8,33 c -1.7,0 -3.2,-0.7 -4.3,-1.8 -1.1,1.1 -2.6,1.8 -4.3,1.8 -0.4,0 -0.7,0 -1.1,-0.1 l -6.4,9.3 0.148213,9.288372 67.395913,-0.03944 -0.203643,-6.739622 z M 10.099449,73.308499 H 93.599005 V 116.26111 H 10.099449 Z"
         style="fill-rule:evenodd"
         id="lpe_path-effect875" />
      <path
         inkscape:connector-curvature="0"
         d="M 80.3,40.2 76.8,36 74.5,32.9 C 73.3,32.6 72.3,32 71.5,31.2 70.4,32.3 68.9,33 67.2,33 65.5,33 64,32.3 62.9,31.2 61.8,32.3 60.3,33 58.6,33 56.9,33 55.4,32.3 54.3,31.2 53.2,32.3 51.7,33 50,33 48.3,33 46.8,32.3 45.7,31.2 44.6,32.3 43.1,33 41.4,33 39.7,33 38.2,32.3 37.1,31.2 36,32.3 34.5,33 32.8,33 c -1.7,0 -3.2,-0.7 -4.3,-1.8 -1.1,1.1 -2.6,1.8 -4.3,1.8 -0.4,0 -0.7,0 -1.1,-0.1 l -6.4,9.3 0.148213,9.3 67.395913,-0.1 -0.203643,-6.7 z M 15.667644,50.706698 H 85.24413 V 75.536022 H 15.667644 Z"
         style="fill-rule:evenodd"
         id="lpe_path-effect885" />
    </clipPath>
    <clipPath
       id="clipPath913"
       clipPathUnits="userSpaceOnUse">
      <g
         id="g917"
         clip-path="url(#clipPath869)">
        <path
           sodipodi:nodetypes="ccccc"
           inkscape:connector-curvature="0"
           id="path915"
           d="m 16.667644,1000050.9 c 0,0 0.0745,13 0.09552,22.5 l 65.014163,0.1 2.466803,-22.8 z" />
      </g>
      <path
         inkscape:connector-curvature="0"
         d="m 16.667644,51.904737 c 0,0 0.0745,12.946605 0.09552,22.473897 L 81.777327,74.536022 84.24413,51.706698 Z M 10.099449,73.308499 H 93.599005 V 116.26111 H 10.099449 Z"
         style="fill-rule:evenodd"
         id="lpe_path-effect921" />
    </clipPath>
  </defs>
  <sodipodi:namedview
     inkscape:current-layer="Layer_1"
     inkscape:window-maximized="0"
     inkscape:window-y="520"
     inkscape:window-x="0"
     inkscape:cy="107.73305"
     inkscape:cx="445.68466"
     inkscape:zoom="0.72491645"
     showgrid="false"
     id="namedview844"
     inkscape:window-height="1080"
     inkscape:window-width="1920"
     inkscape:pageshadow="2"
     inkscape:pageopacity="0"
     guidetolerance="10"
     gridtolerance="10"
     objecttolerance="10"
     borderopacity="1"
     inkscape:document-rotation="0"
     bordercolor="#666666"
     pagecolor="#ffffff" />
  <g
     style="fill:#000000;fill-opacity:1"
     transform="matrix(4.3835716,0,0,4.3835716,-42.615775,-29.564071)"
     id="g837">
    <path
       style="fill:#000000;fill-opacity:1"
       sodipodi:nodetypes="ccccscscscscscscccccc"
       inkscape:connector-curvature="0"
       id="path835"
       d="M 78.227207,40.443858 76.8,36 74.5,32.9 C 73.3,32.6 72.3,32 71.5,31.2 70.4,32.3 68.9,33 67.2,33 65.5,33 64,32.3 62.9,31.2 61.8,32.3 60.3,33 58.6,33 56.9,33 55.4,32.3 54.3,31.2 53.2,32.3 51.7,33 50,33 48.3,33 46.8,32.3 45.7,31.2 44.6,32.3 43.1,33 41.4,33 39.7,33 38.2,32.3 37.1,31.2 36,32.3 34.5,33 32.8,33 c -1.7,0 -3.2,-0.7 -4.3,-1.8 -1.1,1.1 -2.6,1.8 -4.3,1.8 -0.4,0 -0.7,0 -1.1,-0.1 l -3.107917,11.372793 -3.14387,7.215579 67.395913,-0.03944 -1.422933,-6.008048 z" />
  </g>
  <g
     transform="matrix(4.3835716,0,0,4.3835716,-42.615775,-20.796927)"
     id="g841">
    <path
       sodipodi:nodetypes="cccccccccccc"
       inkscape:connector-curvature="0"
       id="path839"
       stroke-width="1.7622"
       stroke-miterlimit="10"
       stroke="#000000"
       fill="none"
       d="m 73.9375,32.98125 c 0.3,-0.4 -1.44375,-5.5375 -1.44375,-6.0375 L 64,18.2 l -3.7,-6 -6,-1.1 -2.8,-3.8 -4.5,-1.5 -5.6,9 -4.1,2.7 -3.7,7 -5,-0.3 -4.875,7.35625" />
  </g>
  <path
     sodipodi:nodetypes="cc"
     inkscape:connector-curvature="0"
     id="path850"
     d="M 406.59148,114.26838 H 729.39309"
     style="fill:#000000;fill-opacity:1;stroke:#212121;stroke-width:3.13262;stroke-linecap:butt;stroke-linejoin:miter;stroke-miterlimit:4;stroke-dasharray:none;stroke-opacity:1" />
  <g
     style="fill:#454545;fill-opacity:1"
     inkscape:path-effect="#path-effect875;#path-effect921"
     clip-path="url(#clipPath913)"
     id="g854"
     transform="matrix(4.3835716,0,0,4.3835716,-42.614215,55.914651)">
    <path
       transform="matrix(1.3979933,0,0,1,-16.452196,0)"
       style="fill:#454545;fill-opacity:1"
       inkscape:original-d="m 19.707995,74.308499 5.884723,7.921444 12.158698,14.3421 3.493123,10.529557 v 0 l 11.94251,8.15951 8.063159,-21.282988 11.28461,-6.960725 5.470707,-12.481375 z"
       d="m 19.707995,74.308499 5.884723,7.921444 12.158698,14.3421 3.493123,10.529557 v 0 l 11.94251,8.15951 8.063159,-21.282988 11.28461,-6.960725 5.470707,-12.481375 z"
       id="path852"
       inkscape:connector-curvature="0"
       sodipodi:nodetypes="cccccccccc" />
  </g>
  <path
     style="fill:#000000;fill-opacity:1;stroke:#212121;stroke-width:3.13262;stroke-linecap:butt;stroke-linejoin:miter;stroke-miterlimit:4;stroke-dasharray:none;stroke-opacity:1"
     d="M 406.59155,196.5132 H 729.39303"
     id="path879"
     inkscape:connector-curvature="0"
     sodipodi:nodetypes="cc" />
  <g
     style="fill:#252525;fill-opacity:1"
     clip-path="url(#clipPath869)"
     id="g909"
     transform="matrix(5.9538142,0,0,4.3835716,-103.27644,-31.319297)"
     inkscape:path-effect="#path-effect911">
    <path
       style="fill:#252525;fill-opacity:1"
       d="m 22.593251,51.888782 -5.246985,13.940408 0.297693,8.326437 0.716954,20.053071 60.005086,0.227523 0.715361,-27.779213 -6.867009,-14.807666 z"
       id="path907"
       inkscape:connector-curvature="0"
       sodipodi:nodetypes="cccccccc"
       inkscape:original-d="m 22.593251,51.888782 -5.246985,13.940408 0.297693,8.326437 0.716954,20.053071 60.005086,0.227523 0.715361,-27.779213 -6.867009,-14.807666 z" />
  </g>
  <path
     sodipodi:nodetypes="cc"
     inkscape:connector-curvature="0"
     id="path925"
     d="M 406.59148,382.54207 H 729.39309"
     style="fill:#000000;fill-opacity:1;stroke:#212121;stroke-width:3.13262;stroke-linecap:butt;stroke-linejoin:miter;stroke-miterlimit:4;stroke-dasharray:none;stroke-opacity:1" />
  <path
     sodipodi:nodetypes="cc"
     inkscape:connector-curvature="0"
     id="path927"
     d="m 8.032633,382.03154 355.267527,0.6171"
     style="fill:none;stroke:#000000;stroke-width:0.99177;stroke-linecap:butt;stroke-linejoin:miter;stroke-miterlimit:4;stroke-dasharray:none;stroke-opacity:1" />
  <path
     inkscape:connector-curvature="0"
     id="path929"
     d="M 31.239572,196.13889 326.67439,195.966"
     style="fill:none;stroke:#000000;stroke-width:0.876714;stroke-linecap:butt;stroke-linejoin:miter;stroke-miterlimit:4;stroke-dasharray:none;stroke-opacity:1" />
  <text
     id="text937"
     y="78.754333"
     x="477.22806"
     style="font-style:normal;font-variant:normal;font-weight:normal;font-stretch:normal;font-size:29.3333px;line-height:1.25;font-family:sans-serif;-inkscape-font-specification:'sans-serif Normal';font-variant-ligatures:normal;font-variant-caps:normal;font-variant-numeric:normal;font-variant-east-asian:normal;fill:#000000;fill-opacity:1;stroke:none"
     xml:space="preserve"><tspan
       y="78.754333"
       x="477.22806"
       id="tspan935"
       sodipodi:role="line">Audit simple</tspan></text>
  <text
     xml:space="preserve"
     style="font-style:normal;font-variant:normal;font-weight:normal;font-stretch:normal;font-size:29.3333px;line-height:1.25;font-family:sans-serif;-inkscape-font-specification:'sans-serif Normal';font-variant-ligatures:normal;font-variant-caps:normal;font-variant-numeric:normal;font-variant-east-asian:normal;fill:#000000;fill-opacity:1;stroke:none"
     x="421.18973"
     y="164.75433"
     id="text953"><tspan
       y="164.75433"
       x="421.18973"
       id="tspan973"
       sodipodi:role="line">Liste des Anomalies</tspan></text>
  <text
     id="text959"
     y="298.75433"
     x="469.6011"
     style="font-style:normal;font-variant:normal;font-weight:normal;font-stretch:normal;font-size:29.3333px;line-height:1.25;font-family:sans-serif;-inkscape-font-specification:'sans-serif Normal';font-variant-ligatures:normal;font-variant-caps:normal;font-variant-numeric:normal;font-variant-east-asian:normal;fill:#000000;fill-opacity:1;stroke:none"
     xml:space="preserve"><tspan
       y="298.75433"
       x="469.6011"
       id="tspan971"
       sodipodi:role="line">Préconisation</tspan></text>
  <text
     xml:space="preserve"
     style="font-style:normal;font-variant:normal;font-weight:normal;font-stretch:normal;font-size:29.3333px;line-height:1.25;font-family:sans-serif;-inkscape-font-specification:'sans-serif Normal';font-variant-ligatures:normal;font-variant-caps:normal;font-variant-numeric:normal;font-variant-east-asian:normal;fill:#000000;fill-opacity:1;stroke:none"
     x="435.48398"
     y="478.75433"
     id="text965"><tspan
       y="478.75433"
       x="435.48398"
       id="tspan967"
       sodipodi:role="line">Pair Programming</tspan></text>
</svg>
